<svg width="691" height="450" viewBox="0 0 691 450" fill="none" xmlns="http://www.w3.org/2000/svg">
<path fill-rule="evenodd" clip-rule="evenodd" d="M373.82 74.9038C373.82 86.2318 368.156 80.5678 368.156 91.8958C368.156 91.8958 368.156 97.5598 368.156 103.224C373.82 103.224 379.484 103.224 379.484 108.888C390.812 120.216 396.476 154.2 402.14 165.528C402.14 176.856 407.804 188.184 407.804 199.512C407.804 210.84 407.804 227.832 407.804 233.496C413.468 239.16 413.468 244.824 419.132 244.824C419.132 239.16 419.132 239.16 419.132 239.16C424.796 227.832 430.46 239.16 430.46 222.168V216.504C436.123 205.176 430.46 210.84 475.771 210.84V239.16H481.435C481.435 233.496 481.435 193.848 481.435 182.52H504.091V233.496C515.419 233.496 521.082 233.496 526.746 227.832C526.746 216.504 526.746 210.84 538.074 210.84C560.73 210.84 583.386 233.496 589.05 250.488C589.05 250.488 594.714 250.488 594.714 244.824C594.714 244.824 600.378 239.16 606.042 239.16C617.369 239.16 617.369 267.48 617.369 278.808C623.033 284.472 623.033 278.808 628.697 284.472V290.136C623.033 267.48 640.025 233.496 651.353 216.504C662.681 193.848 668.345 171.192 674.009 137.208C679.673 74.9038 651.353 18.2639 589.05 63.5758C538.074 97.5598 515.419 154.2 487.099 159.864C453.115 165.528 402.14 108.888 379.484 86.2318L373.82 74.9038Z" fill="#FFADB7"/>
<path fill-rule="evenodd" clip-rule="evenodd" d="M135.935 199.512C141.599 210.84 147.262 216.504 147.262 227.832H152.926V244.824H164.254V261.816V239.16H181.246C181.246 250.488 175.582 250.488 186.91 250.488C186.91 250.488 192.574 250.488 192.574 239.16C192.574 233.496 192.574 233.496 192.574 227.832C192.574 216.504 192.574 210.84 192.574 199.512C198.238 193.848 203.902 199.512 209.566 193.848C209.566 176.856 220.894 171.192 237.885 176.856C254.877 182.52 249.213 199.512 243.549 210.84C254.877 216.504 260.541 210.84 260.541 227.832L254.877 233.496C254.877 239.16 254.877 233.496 260.541 239.16C260.541 233.496 260.541 227.832 260.541 222.168V171.192H283.197V193.848C288.861 193.848 288.861 193.848 288.861 193.848C294.525 176.856 294.525 165.528 294.525 148.536C294.525 142.872 300.189 131.544 300.189 125.88C300.189 120.216 305.853 114.552 305.853 108.888C305.853 103.224 311.517 103.224 317.18 97.56C311.517 97.56 311.517 97.56 311.517 97.56L305.853 91.896C317.18 74.904 311.517 86.232 317.18 63.576C317.18 46.584 322.844 46.584 328.508 35.2561C317.18 35.2561 288.861 6.93609 249.213 1.27209C164.254 -10.0559 220.894 80.568 220.894 108.888C226.558 131.544 220.894 142.872 209.566 159.864C203.902 171.192 192.574 176.856 181.246 182.52L147.262 199.512C141.599 205.176 141.599 205.176 135.935 199.512Z" fill="#FFADB7"/>
<path fill-rule="evenodd" clip-rule="evenodd" d="M628.696 290.136V284.472C611.705 267.48 600.377 324.12 606.041 352.44C606.041 363.768 606.041 369.432 600.377 380.76C589.049 380.76 589.049 369.432 583.385 369.432C572.057 380.76 577.721 409.08 583.385 420.408C589.049 437.4 589.049 437.4 600.377 448.728H606.041C611.705 448.728 611.705 426.072 606.041 420.408C606.041 414.744 594.713 409.08 594.713 403.416C594.713 403.416 606.041 414.744 611.705 420.408C617.368 363.768 623.032 375.096 628.696 352.44C628.696 346.776 623.032 335.448 623.032 329.784L628.696 341.112H634.36L623.032 375.096C628.696 375.096 628.696 369.432 634.36 369.432C628.696 369.432 623.032 375.096 617.368 380.76C617.368 386.424 617.368 403.416 617.368 403.416H628.696C611.705 409.08 611.705 409.08 611.705 448.728C634.36 448.728 685.336 414.744 685.336 397.752C674.008 392.088 662.68 397.752 651.352 397.752C651.352 386.424 668.344 369.432 679.672 358.104C685.336 352.44 691 352.44 685.336 341.112C674.008 335.448 668.344 341.112 651.352 341.112C657.016 329.784 685.336 295.8 691 278.808C691 261.816 674.008 261.816 657.016 267.48C640.024 278.808 645.688 290.136 634.36 295.8C628.696 295.8 628.696 295.8 628.696 290.136Z" fill="#FF566A"/>
<path fill-rule="evenodd" clip-rule="evenodd" d="M96.2869 295.8C96.2869 301.464 96.2869 295.8 96.2869 301.464C101.951 307.128 101.951 307.128 101.951 312.792C79.2951 312.792 90.6229 318.456 79.2951 324.12C73.6311 301.464 84.959 318.456 73.6311 301.464V324.12C67.9672 318.456 62.3033 307.128 62.3033 301.464L67.9672 318.456C62.3033 318.456 62.3033 312.792 56.6393 312.792H0C0 329.784 5.66393 346.776 16.9918 358.104C16.9918 352.44 11.3279 352.44 22.6557 352.44C33.9836 352.44 39.6475 363.768 45.3115 369.432C45.3115 363.768 50.9754 358.104 50.9754 352.44C67.9672 352.44 62.3033 363.768 73.6311 358.104C84.959 318.456 107.615 369.432 118.943 380.76C124.607 375.096 141.598 341.112 147.262 369.432C152.926 375.096 147.262 375.096 158.59 375.096C164.254 358.104 181.246 363.768 181.246 386.424C181.246 397.752 181.246 403.416 186.91 414.744C186.91 426.072 192.574 431.736 192.574 437.4C209.566 431.736 237.885 431.736 249.213 420.408C232.221 414.744 249.213 414.744 220.893 409.08C215.23 409.08 215.23 409.08 209.566 409.08H203.902C198.238 403.416 198.238 397.752 203.902 392.088C203.902 380.76 203.902 363.768 209.566 352.44H203.902C198.238 346.776 203.902 329.784 203.902 324.12L198.238 318.456V312.792H124.607C124.607 307.128 124.607 295.8 130.27 290.136C130.27 284.472 130.27 284.472 130.27 278.808V267.48C130.27 261.816 135.934 261.816 124.607 267.48C124.607 273.144 124.607 284.472 124.607 295.8L118.943 290.136C118.943 301.464 124.607 301.464 124.607 312.792C118.943 312.792 113.279 312.792 101.951 312.792C101.951 301.464 101.951 290.136 107.615 284.472C101.951 284.472 101.951 284.472 101.951 284.472C96.2869 261.816 90.6229 261.816 96.2869 244.824C90.6229 244.824 96.2869 250.488 90.6229 244.824L96.2869 295.8Z" fill="#FFADB7"/>
<path fill-rule="evenodd" clip-rule="evenodd" d="M526.746 227.832C532.41 233.496 538.074 250.488 538.074 256.152C543.738 261.816 549.402 267.48 549.402 278.808C555.066 278.808 555.066 284.472 560.729 284.472C560.729 290.136 560.729 295.8 560.729 301.464C555.066 301.464 509.754 273.144 526.746 312.792C532.41 318.456 538.074 329.784 549.402 335.448C549.402 341.112 560.729 358.104 560.729 363.768H555.066C543.738 363.768 538.074 363.768 532.41 358.104C521.082 358.104 521.082 358.104 515.418 369.432C521.082 369.432 521.082 375.096 521.082 375.096C538.074 392.088 566.393 414.744 583.385 420.408C577.721 409.08 572.057 380.76 583.385 369.432C589.049 369.432 589.049 380.76 600.377 380.76C606.041 369.432 606.041 363.768 606.041 352.44C600.377 324.12 611.705 267.48 628.697 284.472C623.033 278.808 623.033 284.472 617.369 278.808C617.369 267.48 617.369 239.16 606.041 239.16C600.377 239.16 594.713 244.824 594.713 244.824C594.713 250.488 589.049 250.488 589.049 250.488C583.385 233.496 560.729 210.84 538.074 210.84C526.746 210.84 526.746 216.504 526.746 227.832Z" fill="#FF7586"/>
<path fill-rule="evenodd" clip-rule="evenodd" d="M294.524 233.496C305.852 222.168 311.516 159.864 317.18 154.2C322.844 182.52 305.852 193.848 311.516 210.84C311.516 216.504 311.516 216.504 311.516 216.504H379.483H385.147C373.819 193.848 373.819 171.192 373.819 148.536C379.483 148.536 379.483 154.2 379.483 159.864C385.147 171.192 385.147 171.192 385.147 176.856C390.811 193.848 390.811 205.176 390.811 216.504C396.475 227.832 390.811 210.84 396.475 222.168C396.475 227.832 396.475 227.832 396.475 233.496H407.803C407.803 227.832 407.803 210.84 407.803 199.512C407.803 188.184 402.139 176.856 402.139 165.528C396.475 154.2 390.811 120.216 379.483 108.888C373.819 108.888 368.155 103.224 356.828 108.888C356.828 114.552 356.828 114.552 351.164 120.216C339.836 120.216 339.836 114.552 334.172 108.888H328.508C328.508 103.224 328.508 103.224 328.508 103.224C328.508 103.224 322.844 108.888 317.18 108.888H311.516C300.188 120.216 300.188 142.872 300.188 159.864C294.524 171.192 300.188 188.184 300.188 199.512C294.524 210.84 288.86 210.84 288.86 227.832C294.524 233.496 294.524 233.496 294.524 233.496Z" fill="#DB7A2C"/>
<path fill-rule="evenodd" clip-rule="evenodd" d="M351.164 363.767C385.148 358.103 413.467 375.095 441.787 380.759C441.787 369.431 436.123 358.103 441.787 352.439C453.115 352.439 453.115 358.103 453.115 358.103C464.443 363.767 464.443 358.103 470.107 363.767C481.435 375.095 481.435 380.759 492.762 386.423L504.09 380.759C509.754 380.759 509.754 380.759 509.754 380.759C515.418 380.759 515.418 375.095 515.418 369.431V335.447C526.746 329.783 549.402 358.103 555.066 363.767H560.73C560.73 358.103 549.402 341.111 549.402 335.447C538.074 329.783 532.41 318.455 526.746 312.792H447.451C447.451 318.455 453.115 324.119 453.115 329.783C447.451 329.783 447.451 329.783 441.787 335.447L436.123 329.783V335.447H385.148V312.792H362.492L351.164 363.767Z" fill="#FFADB7"/>
<path fill-rule="evenodd" clip-rule="evenodd" d="M379.484 216.504C385.148 239.16 379.484 261.816 368.156 278.808H385.148V256.152H390.812C396.476 256.152 396.476 256.152 396.476 256.152C396.476 261.816 396.476 261.816 396.476 261.816C396.476 250.488 402.14 256.152 407.804 256.152C413.468 256.152 413.468 256.152 413.468 256.152C413.468 256.152 413.468 256.152 419.132 256.152C424.796 250.488 419.132 250.488 424.796 250.488L436.123 329.784L441.787 335.448C447.451 329.784 447.451 329.784 453.115 329.784C453.115 324.12 447.451 318.456 447.451 312.792V295.8C441.787 290.136 441.787 273.144 436.123 267.48C436.123 261.816 436.123 233.496 436.123 227.832H453.115V278.808H481.435C481.435 267.48 481.435 261.816 487.099 250.488H498.427V233.496C504.091 233.496 521.082 233.496 526.746 233.496V227.832C521.082 233.496 515.419 233.496 504.091 233.496V182.52H481.435C481.435 193.848 481.435 233.496 481.435 239.16H475.771V210.84C430.46 210.84 436.123 205.176 430.46 216.504V222.168C430.46 239.16 424.796 227.832 419.132 239.16C419.132 239.16 419.132 239.16 419.132 244.824C413.468 244.824 413.468 239.16 407.804 233.496H396.476C396.476 227.832 396.476 227.832 396.476 222.168C390.812 210.84 396.476 227.832 390.812 216.504C390.812 205.176 390.812 193.848 385.148 176.856C385.148 171.192 385.148 171.192 379.484 159.864C379.484 154.2 379.484 148.536 373.82 148.536C373.82 171.192 373.82 193.848 385.148 216.504H379.484Z" fill="#FFADB7"/>
<path fill-rule="evenodd" clip-rule="evenodd" d="M186.91 437.399C181.246 426.071 147.263 392.087 158.591 375.095C147.263 375.095 152.927 375.095 147.263 369.431C141.599 341.111 124.607 375.095 118.943 380.759C118.943 386.423 107.615 409.079 107.615 409.079C96.2872 409.079 84.9594 380.759 79.2954 375.095C73.6315 358.103 73.6315 369.431 73.6315 358.103C62.3036 363.767 67.9676 352.439 50.9758 352.439C50.9758 358.103 45.3118 363.767 45.3118 369.431C39.6479 363.767 33.984 352.439 22.6561 352.439C11.3282 352.439 16.9922 352.439 16.9922 358.103C22.6561 380.759 56.6397 403.415 84.9594 414.743C118.943 437.399 147.263 437.399 186.91 437.399Z" fill="#FFADB7"/>
<path fill-rule="evenodd" clip-rule="evenodd" d="M198.238 250.488C192.574 261.816 198.238 278.808 198.238 290.136C198.238 301.464 198.238 307.128 198.238 312.792V318.456L203.902 324.12C203.902 329.784 198.238 346.776 203.902 352.44H209.566L226.558 346.776L243.549 341.112H260.541L266.205 335.448L260.541 312.792L254.877 284.472C249.213 278.808 249.213 273.144 249.213 267.48C249.213 261.816 249.213 261.816 254.877 256.152C260.541 250.488 254.877 244.824 254.877 239.16C249.213 233.496 249.213 233.496 243.549 227.832C237.886 227.832 243.549 227.832 237.886 239.16C220.894 239.16 220.894 227.832 209.566 233.496C203.902 244.824 203.902 244.824 198.238 250.488Z" fill="#CF4C4E"/>
<path fill-rule="evenodd" clip-rule="evenodd" d="M441.787 380.759L475.77 403.415C487.098 409.079 504.09 414.743 515.418 426.071C543.738 437.399 566.393 454.391 606.041 448.727H600.377C589.049 437.399 589.049 437.399 583.385 420.407C566.393 414.743 538.074 392.087 521.082 375.095C521.082 375.095 521.082 369.431 515.418 369.431C515.418 375.095 515.418 380.759 509.754 380.759C509.754 380.759 509.754 380.759 504.09 380.759L492.762 386.423C481.434 380.759 481.434 375.095 470.107 363.767C464.443 358.103 464.443 363.767 453.115 358.103C453.115 358.103 453.115 352.439 441.787 352.439C436.123 358.103 441.787 369.431 441.787 380.759Z" fill="#FFADB7"/>
<path fill-rule="evenodd" clip-rule="evenodd" d="M260.541 341.111L266.205 392.087C277.533 397.751 277.533 392.087 283.197 392.087C283.197 403.415 283.197 403.415 277.533 403.415H283.197C288.861 409.079 283.197 403.415 288.861 414.743C271.869 414.743 277.533 414.743 266.205 409.079C260.541 414.743 266.205 409.079 260.541 414.743C254.877 420.407 260.541 414.743 254.877 420.407C266.205 420.407 305.852 420.407 311.516 414.743C305.852 409.079 305.852 409.079 300.188 403.415C294.524 403.415 294.524 403.415 294.524 397.751L288.861 392.087C294.524 392.087 305.852 375.095 334.172 369.431C328.508 358.103 328.508 352.439 328.508 341.111C328.508 329.783 328.508 324.119 328.508 312.792H260.541L266.205 335.447L260.541 341.111Z" fill="#FFADB7"/>
<path fill-rule="evenodd" clip-rule="evenodd" d="M135.935 80.5681C84.9592 97.5601 107.615 171.192 164.254 159.864C209.566 142.872 192.574 63.5762 135.935 80.5681Z" fill="#FFCFD5"/>
<path fill-rule="evenodd" clip-rule="evenodd" d="M311.517 216.504H317.181C317.181 227.832 317.181 233.496 322.844 239.16C345.5 250.488 339.836 278.808 345.5 301.464C345.5 341.112 334.172 324.12 339.836 341.112C339.836 358.104 345.5 369.432 351.164 380.76V375.096V363.768L362.492 312.792L368.156 278.808C379.484 261.816 385.148 239.16 379.484 216.504H311.517Z" fill="#231C60"/>
<path fill-rule="evenodd" clip-rule="evenodd" d="M447.451 295.8V290.136C464.443 290.136 481.435 295.8 504.09 290.136C521.082 284.472 538.074 278.808 549.402 278.808C549.402 267.48 543.738 261.816 538.074 256.152C538.074 250.488 532.41 233.496 526.746 227.832V233.496C521.082 233.496 504.09 233.496 498.426 233.496V250.488H487.098C481.435 261.816 481.435 267.48 481.435 278.808H453.115V227.832H436.123C436.123 233.496 436.123 261.816 436.123 267.48C441.787 273.144 441.787 290.136 447.451 295.8Z" fill="#FFADB7"/>
<path fill-rule="evenodd" clip-rule="evenodd" d="M118.942 216.504C124.606 227.832 118.942 256.152 113.278 261.816H118.942H124.606V267.48C135.934 261.816 130.27 261.816 130.27 267.48V278.808C130.27 284.472 130.27 284.472 130.27 290.136C124.606 295.8 124.606 307.128 124.606 312.792H198.237C198.237 307.128 198.237 301.464 198.237 290.136C192.573 290.136 175.582 295.8 152.926 290.136C152.926 278.808 152.926 273.144 152.926 256.152C152.926 244.824 147.262 233.496 147.262 227.832C147.262 216.504 141.598 210.84 135.934 199.512C135.934 193.848 135.934 193.848 124.606 193.848C118.942 199.512 118.942 205.176 118.942 216.504Z" fill="#FFADB7"/>
<path fill-rule="evenodd" clip-rule="evenodd" d="M385.147 278.808V312.792V335.448H436.123V329.784L424.795 250.488C419.131 250.488 424.795 250.488 419.131 256.152C413.467 256.152 413.467 256.152 413.467 256.152C413.467 256.152 413.467 256.152 407.803 256.152C402.139 256.152 396.475 250.488 396.475 261.816C396.475 261.816 396.475 261.816 396.475 256.152C396.475 256.152 396.475 256.152 390.811 256.152H385.147V278.808Z" fill="#FFADB7"/>
<path fill-rule="evenodd" clip-rule="evenodd" d="M305.852 108.888C305.852 114.552 300.188 120.216 300.188 125.88C300.188 131.544 294.524 142.872 294.524 148.536C294.524 165.528 294.524 176.856 288.86 193.848L283.196 222.168C277.533 233.496 283.196 227.832 283.196 233.496C288.86 244.824 271.869 256.152 254.877 256.152C249.213 261.816 249.213 261.816 249.213 267.48C254.877 267.48 254.877 273.144 271.869 261.816C283.196 256.152 277.533 256.152 288.86 256.152H294.524C300.188 250.488 294.524 233.496 294.524 233.496C294.524 233.496 294.524 233.496 288.86 227.832C288.86 210.84 294.524 210.84 300.188 199.512C300.188 188.184 294.524 171.192 300.188 159.864C300.188 142.872 300.188 120.216 311.516 108.888H317.18C322.844 108.888 328.508 103.224 328.508 103.224C328.508 103.224 328.508 103.224 328.508 108.888H334.172C339.836 114.552 339.836 120.216 351.164 120.216C356.828 114.552 356.828 114.552 356.828 108.888C368.156 103.224 373.819 108.888 379.483 108.888C379.483 103.224 373.819 103.224 368.156 103.224C362.492 97.5599 356.828 97.5599 351.164 91.8959C351.164 86.2319 356.828 86.2319 356.828 74.904C362.492 57.912 356.828 46.584 339.836 46.584C334.172 52.248 328.508 63.576 328.508 63.576C328.508 69.24 328.508 63.576 322.844 69.24C328.508 80.5679 334.172 74.904 334.172 97.5599C328.508 97.5599 328.508 103.224 322.844 103.224C317.18 103.224 311.516 108.888 305.852 108.888Z" fill="#EC9267"/>
<path fill-rule="evenodd" clip-rule="evenodd" d="M322.844 290.136L328.508 312.792C328.508 324.12 328.508 329.784 328.508 341.112C328.508 352.44 328.508 358.104 334.172 369.432C328.508 375.096 328.508 380.76 328.508 380.76H334.172C339.836 392.088 339.836 397.752 339.836 403.416C345.5 397.752 345.5 392.088 345.5 392.088H356.828C356.828 392.088 356.828 392.088 356.828 386.424C356.828 380.76 356.828 380.76 351.164 375.096V380.76C345.5 369.432 339.836 358.104 339.836 341.112C334.172 324.12 345.5 341.112 345.5 301.464C339.836 278.808 345.5 250.488 322.844 239.16C317.18 233.496 317.18 227.832 317.18 216.504H311.516C305.852 256.152 317.18 261.816 322.844 290.136Z" fill="#2B3991"/>
<path fill-rule="evenodd" clip-rule="evenodd" d="M147.263 227.832C147.263 233.496 152.927 244.824 152.927 256.152C152.927 273.144 152.927 278.808 152.927 290.136C175.582 295.8 192.574 290.136 198.238 290.136C198.238 278.808 192.574 261.816 198.238 250.488C198.238 239.16 203.902 233.496 209.566 233.496C215.23 227.832 226.558 227.832 220.894 216.504C220.894 222.168 220.894 216.504 215.23 222.168C209.566 227.832 215.23 227.832 209.566 227.832H203.902C203.902 222.168 209.566 216.504 215.23 216.504C209.566 210.84 209.566 199.512 209.566 193.848C203.902 199.512 198.238 193.848 192.574 199.512C192.574 210.84 192.574 216.504 192.574 227.832C192.574 233.496 192.574 233.496 192.574 239.16C192.574 250.488 186.91 250.488 186.91 250.488C175.582 250.488 181.246 250.488 181.246 239.16H164.254V261.816V244.824H152.927V227.832H147.263Z" fill="#FFADB7"/>
<path fill-rule="evenodd" clip-rule="evenodd" d="M226.557 346.776C226.557 358.104 220.893 358.104 220.893 369.432C220.893 380.76 215.229 386.424 215.229 397.752C209.565 397.752 209.565 397.752 203.901 392.088C198.237 397.752 198.237 403.416 203.901 409.08H209.565C215.229 409.08 215.229 409.08 220.893 409.08C249.213 414.744 232.221 414.744 249.213 420.408H254.877C260.541 414.744 254.877 420.408 260.541 414.744C266.205 409.08 260.541 414.744 266.205 409.08C277.532 414.744 271.868 414.744 288.86 414.744C283.196 403.416 288.86 409.08 283.196 403.416H277.532C271.868 409.08 266.205 409.08 260.541 409.08V397.752C254.877 380.76 249.213 363.768 243.549 341.112L226.557 346.776Z" fill="#FFADB7"/>
<path fill-rule="evenodd" clip-rule="evenodd" d="M79.2947 233.496C73.6307 244.824 84.9586 256.152 73.6307 261.816C73.6307 267.48 67.9668 273.144 67.9668 278.808C73.6307 273.144 84.9586 261.816 96.2865 295.8L90.6225 244.824C96.2865 250.488 90.6225 244.824 96.2865 244.824C90.6225 261.816 96.2865 261.816 101.95 284.472C101.95 284.472 101.95 284.472 107.614 284.472C101.95 290.136 101.95 301.464 101.95 312.792C113.278 312.792 118.942 312.792 124.606 312.792C124.606 301.464 118.942 301.464 118.942 290.136L124.606 295.8C124.606 284.472 124.606 273.144 124.606 267.48V261.816H118.942H113.278C107.614 256.152 101.95 233.496 96.2865 222.168C84.9586 205.176 79.2947 216.504 79.2947 233.496Z" fill="#FFADB7"/>
<path fill-rule="evenodd" clip-rule="evenodd" d="M294.524 233.496C294.524 233.496 300.188 250.488 294.524 256.152H288.86C277.533 256.152 283.196 256.152 271.869 261.816C254.877 273.144 254.877 267.48 249.213 267.48C249.213 273.144 249.213 278.808 254.877 284.472C254.877 278.808 294.524 290.136 305.852 290.136C311.516 295.8 317.18 295.8 322.844 290.136C317.18 261.816 305.852 256.152 311.516 216.504C311.516 216.504 311.516 216.504 311.516 210.84C305.852 193.848 322.844 182.52 317.18 154.2C311.516 159.864 305.852 222.168 294.524 233.496Z" fill="#FFADB7"/>
<path fill-rule="evenodd" clip-rule="evenodd" d="M45.3115 295.8C45.3115 301.464 45.3115 301.464 50.9754 301.464C50.9754 307.128 50.9754 307.128 50.9754 312.792H5.66393L0 307.128C0 307.128 0 307.128 0 312.792H56.6393C62.3033 312.792 62.3033 318.456 67.9672 318.456L62.3033 301.464C62.3033 307.128 67.9672 318.456 73.6311 324.12V301.464C84.959 318.456 73.6311 301.464 79.2951 324.12C90.623 318.456 79.2951 312.792 101.951 312.792C101.951 307.128 101.951 307.128 96.2869 301.464C96.2869 295.8 96.2869 301.464 96.2869 295.8C84.959 261.816 73.6311 273.144 67.9672 278.808C67.9672 273.144 73.6311 267.48 73.6311 261.816C62.3033 267.48 50.9754 261.816 39.6475 261.816C33.9836 273.144 39.6475 284.472 45.3115 295.8Z" fill="#FFADB7"/>
<path fill-rule="evenodd" clip-rule="evenodd" d="M260.541 227.832C254.877 222.168 254.877 216.504 237.885 216.504C237.885 227.832 237.885 222.168 243.549 227.832C249.213 233.496 249.213 233.496 254.877 239.16C254.877 244.824 260.541 250.488 254.877 256.152C271.868 256.152 288.86 244.824 283.196 233.496C283.196 227.832 277.532 233.496 283.196 222.168L288.86 193.848C288.86 193.848 288.86 193.848 283.196 193.848V171.192H260.541V222.168C260.541 227.832 260.541 233.496 260.541 239.16C254.877 233.496 254.877 239.16 254.877 233.496L260.541 227.832Z" fill="#FFADB7"/>
<path fill-rule="evenodd" clip-rule="evenodd" d="M447.451 295.8V312.792H526.746C509.754 273.144 555.066 301.464 560.73 301.464C560.73 295.8 560.73 290.136 560.73 284.472C555.066 284.472 555.066 278.808 549.402 278.808C538.074 278.808 521.082 284.472 504.091 290.136C481.435 295.8 464.443 290.136 447.451 290.136V295.8Z" fill="#FFADB7"/>
<path fill-rule="evenodd" clip-rule="evenodd" d="M5.66406 295.8C16.9919 290.136 22.6559 295.8 33.9837 295.8H45.3116C39.6477 284.472 33.9837 273.144 39.6477 261.816C50.9755 261.816 62.3034 267.48 73.6313 261.816C84.9592 256.152 73.6313 244.824 79.2952 233.496C62.3034 233.496 39.6477 250.488 33.9837 256.152C16.9919 267.48 11.328 278.808 5.66406 295.8Z" fill="#FFADB7"/>
<path fill-rule="evenodd" clip-rule="evenodd" d="M328.508 35.2558C322.844 46.5838 317.18 46.5838 317.18 63.5758C311.516 86.2318 317.18 74.9038 305.853 91.8958L311.516 97.5598C311.516 97.5598 311.516 97.5598 317.18 97.5598C311.516 103.224 305.853 103.224 305.853 108.888C311.516 108.888 317.18 103.224 322.844 103.224C328.508 103.224 328.508 97.5598 334.172 97.5598C334.172 74.9038 328.508 80.5678 322.844 69.2398C328.508 63.5758 328.508 69.2398 328.508 63.5758C328.508 63.5758 334.172 52.2478 339.836 46.5838C356.828 46.5838 362.492 57.9118 356.828 74.9038C356.828 86.2318 351.164 86.2318 351.164 91.8958C356.828 97.5598 362.492 97.5598 368.156 103.224C368.156 97.5598 368.156 91.8958 368.156 91.8958C368.156 80.5678 373.82 86.2318 373.82 74.9038C356.828 63.5758 373.82 46.5838 356.828 40.9198C334.172 29.5918 351.164 35.2558 328.508 35.2558Z" fill="#262976"/>
<path fill-rule="evenodd" clip-rule="evenodd" d="M368.155 409.08C362.491 409.08 362.491 409.08 362.491 409.08C356.827 414.744 362.491 409.08 356.827 414.744C356.827 420.408 351.164 420.408 345.5 420.408C339.836 414.744 339.836 420.408 345.5 414.744L339.836 403.416C339.836 397.752 339.836 392.088 334.172 380.76H328.508C339.836 403.416 322.844 392.088 334.172 409.08C351.164 431.736 317.18 448.728 379.483 437.4C390.811 437.4 402.139 431.736 402.139 420.408C390.811 409.08 390.811 420.408 368.155 409.08Z" fill="#FFCFD5"/>
<path fill-rule="evenodd" clip-rule="evenodd" d="M254.877 284.472L260.541 312.792H328.508L322.844 290.136C317.18 295.8 311.516 295.8 305.852 290.136C294.524 290.136 254.877 278.808 254.877 284.472Z" fill="#FFADB7"/>
<path fill-rule="evenodd" clip-rule="evenodd" d="M73.6309 358.104C73.6309 369.432 73.6309 358.104 79.2948 375.096C84.9587 380.76 96.2866 409.08 107.614 409.08C107.614 409.08 118.942 386.424 118.942 380.76C107.614 369.432 84.9587 318.456 73.6309 358.104Z" fill="#FFADB7"/>
<path fill-rule="evenodd" clip-rule="evenodd" d="M158.591 375.096C147.263 392.088 181.246 426.072 186.91 437.4H192.574C192.574 431.736 186.91 426.072 186.91 414.744C181.246 403.416 181.246 397.752 181.246 386.424C181.246 363.768 164.254 358.104 158.591 375.096Z" fill="#FFADB7"/>
<path fill-rule="evenodd" clip-rule="evenodd" d="M220.893 216.504C226.557 227.832 215.229 227.832 209.565 233.496C203.901 233.496 198.237 239.16 198.237 250.488C203.901 244.824 203.901 244.824 209.565 233.496C220.893 227.832 220.893 239.16 237.885 239.16C243.549 227.832 237.885 227.832 243.549 227.832C237.885 222.168 237.885 227.832 237.885 216.504C243.549 210.84 243.549 193.848 237.885 188.184C220.893 176.856 220.893 193.848 215.229 205.176C220.893 210.84 220.893 210.84 220.893 216.504Z" fill="#EC8E65"/>
<path fill-rule="evenodd" clip-rule="evenodd" d="M470.107 97.5602C447.451 108.888 464.443 142.872 487.099 131.544C504.09 120.216 492.762 86.2322 470.107 97.5602Z" fill="#FFCFD5"/>
<path fill-rule="evenodd" clip-rule="evenodd" d="M209.565 193.848C209.565 199.512 209.565 210.84 215.229 216.504C209.565 216.504 203.901 222.168 203.901 227.832H209.565C215.229 227.832 209.565 227.832 215.229 222.168C220.893 216.504 220.893 222.168 220.893 216.504C220.893 210.84 220.893 210.84 215.229 205.176C220.893 193.848 220.893 176.856 237.885 188.184C243.549 193.848 243.549 210.84 237.885 216.504C254.877 216.504 254.877 222.168 260.541 227.832C260.541 210.84 254.877 216.504 243.549 210.84C249.213 199.512 254.877 182.52 237.885 176.856C220.893 171.192 209.565 176.856 209.565 193.848Z" fill="#262976"/>
<path fill-rule="evenodd" clip-rule="evenodd" d="M0 307.128L5.66393 312.792H50.9754C50.9754 307.128 50.9754 307.128 50.9754 301.464C45.3115 301.464 45.3115 301.464 45.3115 295.8H33.9836C22.6557 295.8 16.9918 290.136 5.66393 295.8L0 307.128Z" fill="#FFADB7"/>
<path fill-rule="evenodd" clip-rule="evenodd" d="M96.2871 222.168C101.951 233.496 107.615 256.152 113.279 261.816C118.943 256.152 124.607 227.832 118.943 216.504C113.279 216.504 101.951 222.168 96.2871 222.168Z" fill="#FFADB7"/>
<path fill-rule="evenodd" clip-rule="evenodd" d="M243.549 341.112C249.213 363.768 254.877 380.76 260.541 397.752L266.205 392.088L260.541 341.112H243.549Z" fill="#262976"/>
<path fill-rule="evenodd" clip-rule="evenodd" d="M209.565 352.44C203.901 363.768 203.901 380.76 203.901 392.088C209.565 397.752 209.565 397.752 215.229 397.752C215.229 386.424 220.893 380.76 220.893 369.432C220.893 358.104 226.557 358.104 226.557 346.776L209.565 352.44Z" fill="#262976"/>
<path fill-rule="evenodd" clip-rule="evenodd" d="M515.418 369.432C521.082 358.104 521.082 358.104 532.41 358.104C538.074 363.768 543.738 363.768 555.066 363.768C549.402 358.104 526.746 329.784 515.418 335.448V369.432Z" fill="#FFADB7"/>
<path fill-rule="evenodd" clip-rule="evenodd" d="M368.156 278.808L362.492 312.792H385.148V278.808H368.156Z" fill="#FFADB7"/>
<path fill-rule="evenodd" clip-rule="evenodd" d="M345.5 414.744C339.836 420.408 339.836 414.744 345.5 420.408C351.164 420.408 356.828 420.408 356.828 414.744C362.492 409.08 356.828 414.744 362.492 409.08C362.492 409.08 362.492 409.08 368.156 409.08V403.416C356.828 403.416 356.828 403.416 351.164 403.416C345.5 409.08 345.5 409.08 345.5 414.744Z" fill="#231C60"/>
<path fill-rule="evenodd" clip-rule="evenodd" d="M260.541 397.751V409.079C266.205 409.079 271.869 409.079 277.533 403.415C283.197 403.415 283.197 403.415 283.197 392.087C277.533 392.087 277.533 397.751 266.205 392.087L260.541 397.751Z" fill="#9E6364"/>
<path fill-rule="evenodd" clip-rule="evenodd" d="M339.836 403.415L345.5 414.743C345.5 409.079 345.5 409.079 351.164 403.415C356.828 403.415 356.828 403.415 368.156 403.415C362.492 397.751 368.156 397.751 362.492 397.751C356.828 392.087 362.492 397.751 356.828 392.087H345.5C345.5 392.087 345.5 397.751 339.836 403.415Z" fill="#F8B02C"/>
</svg>
