<svg width="374" height="376" viewBox="0 0 374 376" fill="none" xmlns="http://www.w3.org/2000/svg">
<path fill-rule="evenodd" clip-rule="evenodd" d="M185.171 116.59C187.718 122.055 186.627 133.349 187.354 141C188.446 148.652 190.266 154.117 193.177 161.039C201.547 179.985 211.008 193.101 221.561 207.31C230.659 219.334 244.851 236.093 242.668 258.318C241.212 272.163 228.112 292.93 223.381 311.876C217.194 337.38 217.922 351.589 224.473 376H306.351C304.167 318.798 285.244 304.953 281.605 288.194C272.144 242.287 333.644 265.605 335.827 376H342.013C343.105 357.054 348.564 344.302 346.016 322.806C331.46 198.93 238.665 221.52 200.455 138.814C195.724 128.248 191.721 104.566 186.99 98.3726L185.171 116.59Z" fill="#BE4E92"/>
<path fill-rule="evenodd" clip-rule="evenodd" d="M34.1501 376H39.2447C39.9725 349.403 43.6116 328.636 51.2536 306.047C55.6204 294.388 72.36 257.589 89.0996 269.248C103.292 280.907 84.0049 306.411 79.2742 319.163C73.0878 336.287 68.7209 357.054 68.357 376H149.871C172.07 318.798 130.585 280.907 132.04 249.938C133.132 222.977 166.247 200.388 186.626 148.287C188.081 149.745 191.357 150.838 193.176 161.039C190.265 154.117 188.445 148.652 187.354 141C186.626 133.349 188.809 104.202 186.99 98.3726C183.715 103.473 180.076 128.613 177.528 134.807C161.88 171.241 143.321 182.171 112.753 202.21C101.836 209.496 91.283 216.419 82.1854 223.341C37.0613 258.318 19.9578 303.86 34.1501 376Z" fill="#5DA6DB"/>
<path fill-rule="evenodd" clip-rule="evenodd" d="M164.428 134.807C160.789 123.148 152.783 115.133 160.061 98.3729C172.434 70.6831 209.188 78.3342 216.102 101.288C221.197 118.776 212.827 126.063 207.005 136.629C249.217 132.985 258.315 40.0785 191.721 34.249C162.972 32.063 142.957 51.0087 136.043 71.7761C126.946 98.3729 144.413 132.621 164.428 134.807Z" fill="#FFB156"/>
<path fill-rule="evenodd" clip-rule="evenodd" d="M360.936 249.574C379.495 246.66 382.042 213.14 343.469 205.489C305.623 197.838 322.726 178.528 301.62 161.404C298.344 158.854 289.975 154.846 288.519 153.389C284.152 148.288 287.427 144.644 280.149 140.272C267.049 132.257 254.312 138.451 251.037 151.567C236.481 215.691 276.146 177.071 279.421 175.613C295.069 185.815 284.88 206.947 317.995 226.621C332.915 222.978 305.623 230.993 322.362 224.799L325.637 223.706C349.655 216.419 371.489 226.621 360.936 249.574Z" fill="#BE4E92"/>
<path fill-rule="evenodd" clip-rule="evenodd" d="M57.8043 226.619C68.7215 216.418 73.4522 217.511 79.6386 203.302C84.7332 192.007 84.7332 185.449 93.4669 174.883C104.02 178.527 109.115 194.558 121.124 185.813C130.949 178.162 129.13 136.992 106.567 136.627C89.8279 136.627 92.0113 145.372 86.1888 152.294C81.0942 158.124 72.3605 158.488 65.8102 168.689C51.618 190.914 63.2629 198.201 29.7837 205.488C11.2246 209.495 -10.9735 227.713 6.12999 246.294C13.0442 237.914 8.31342 216.782 42.5204 222.247L57.8043 226.619Z" fill="#5DA6DB"/>
<path fill-rule="evenodd" clip-rule="evenodd" d="M139.683 44.815C139.319 38.2569 137.863 39.7143 133.496 33.8848C128.402 26.2337 129.493 26.2337 119.668 26.9623C121.851 36.4352 129.857 45.5437 139.683 44.815Z" fill="#FFC889"/>
<path fill-rule="evenodd" clip-rule="evenodd" d="M232.114 42.6285C235.753 41.1711 241.212 39.3494 245.215 37.5277C252.493 33.8843 251.765 33.52 253.221 25.1401C240.12 29.1479 233.57 29.8766 232.114 42.6285Z" fill="#FFC889"/>
<path fill-rule="evenodd" clip-rule="evenodd" d="M245.215 67.7671C248.854 66.674 254.312 64.488 258.315 62.6663C265.593 59.3872 264.866 58.6586 266.685 50.6431C253.221 54.2865 246.67 55.0151 245.215 67.7671Z" fill="#FFC889"/>
<path fill-rule="evenodd" clip-rule="evenodd" d="M126.946 70.3181C124.763 65.2173 126.219 67.4034 122.58 64.1243C122.216 63.76 117.849 60.8452 117.485 60.8452C110.571 57.2018 110.935 57.2018 102.929 59.3879C106.568 68.8607 117.849 70.6824 126.946 70.3181Z" fill="#FFC889"/>
<path fill-rule="evenodd" clip-rule="evenodd" d="M160.425 27.3262C160.061 14.2099 161.153 8.01613 149.508 3.64404C150.236 16.7603 148.052 23.3184 160.425 27.3262Z" fill="#FFC889"/>
<path fill-rule="evenodd" clip-rule="evenodd" d="M210.644 25.1386C215.375 22.9525 215.739 22.5882 220.106 18.5804C227.02 12.0223 225.2 14.2084 225.564 4.00684C216.103 8.01458 210.28 12.3867 210.644 25.1386Z" fill="#FFC889"/>
<path fill-rule="evenodd" clip-rule="evenodd" d="M185.898 21.1317C189.537 18.9457 189.537 18.5814 192.085 14.5736C195.724 7.65115 194.996 10.2015 190.629 0C182.987 4.00774 179.348 8.37983 185.898 21.1317Z" fill="#FFC889"/>
</svg>
