<svg width="383" height="83" viewBox="0 0 383 83" fill="none" xmlns="http://www.w3.org/2000/svg">
<path d="M22.3187 64.4053C17.9789 64.4053 14.1464 63.6728 10.8212 62.2077C7.49592 60.6864 4.87517 58.5451 2.95892 55.7841C1.04267 52.9667 0.0563604 49.5577 0 45.557H11.413C11.5257 48.3181 12.512 50.6565 14.3719 52.5723C16.2881 54.4318 18.9089 55.3615 22.2341 55.3615C25.1085 55.3615 27.3911 54.6853 29.0819 53.333C30.7727 51.9243 31.6181 50.0648 31.6181 47.7546C31.6181 45.3316 30.8573 43.444 29.3355 42.0917C27.8702 40.7393 25.8976 39.6405 23.4177 38.7953C20.9379 37.9501 18.2889 37.0485 15.4709 36.0906C10.9057 34.5129 7.41138 32.4844 4.98789 30.0051C2.62075 27.5258 1.43719 24.2295 1.43719 20.1161C1.38083 16.6225 2.19805 13.6361 3.88886 11.1568C5.63603 8.62116 8.00316 6.67717 10.9903 5.32482C13.9774 3.91614 17.4153 3.21179 21.3042 3.21179C25.2494 3.21179 28.7156 3.91614 31.7027 5.32482C34.7461 6.73351 37.1133 8.70568 38.8041 11.2413C40.5512 13.777 41.4812 16.7916 41.5939 20.2851H30.0119C29.9555 18.2003 29.1383 16.369 27.5602 14.7912C26.0385 13.1572 23.8968 12.3401 21.1351 12.3401C18.768 12.2838 16.7672 12.8754 15.1327 14.1151C13.5547 15.2984 12.7656 17.0451 12.7656 19.3554C12.7656 21.3276 13.3856 22.9053 14.6255 24.0886C15.8654 25.2155 17.5562 26.1735 19.6979 26.9623C21.8396 27.7512 24.2913 28.5964 27.0529 29.498C29.9837 30.5122 32.6608 31.6955 35.0843 33.0479C37.5078 34.4002 39.4522 36.2033 40.9176 38.4572C42.383 40.6548 43.1156 43.5003 43.1156 46.9939C43.1156 50.093 42.3266 52.9667 40.7485 55.6151C39.1704 58.2634 36.8315 60.4046 33.7316 62.0387C30.6318 63.6164 26.8275 64.4053 22.3187 64.4053Z" fill="black"/>
<path d="M72.6777 64.4053C68.4507 64.4053 64.7027 63.5037 61.4338 61.7006C58.1649 59.8975 55.6005 57.3618 53.7407 54.0937C51.8808 50.8255 50.9508 47.0502 50.9508 42.7678C50.9508 38.4291 51.8526 34.5692 53.6561 31.1884C55.516 27.8075 58.0522 25.1874 61.2648 23.3279C64.5337 21.4121 68.3661 20.4542 72.7623 20.4542C76.8766 20.4542 80.5118 21.3557 83.668 23.1589C86.8242 24.962 89.2758 27.4413 91.023 30.5967C92.8265 33.6959 93.7283 37.1612 93.7283 40.9929C93.7283 41.6127 93.7001 42.2607 93.6438 42.9369C93.6438 43.613 93.6156 44.3174 93.5592 45.0499H61.6875C61.9129 48.3181 63.0401 50.8819 65.0691 52.7413C67.1544 54.6008 69.6624 55.5306 72.5932 55.5306C74.7912 55.5306 76.6229 55.0516 78.0883 54.0937C79.61 53.0794 80.7372 51.7834 81.4699 50.2057H92.4602C91.6711 52.854 90.3467 55.277 88.4868 57.4745C86.6833 59.6158 84.4288 61.3062 81.7235 62.5458C79.0746 63.7855 76.0593 64.4053 72.6777 64.4053ZM72.7623 29.2444C70.1133 29.2444 67.7744 30.0051 65.7454 31.5265C63.7164 32.9915 62.4201 35.2454 61.8565 38.2882H82.738C82.569 35.5272 81.5545 33.3296 79.6946 31.6955C77.8347 30.0614 75.5239 29.2444 72.7623 29.2444Z" fill="black"/>
<path d="M102.83 63.391V2.53564H113.651V27.8921C115.06 25.5818 116.948 23.7787 119.315 22.4827C121.738 21.1303 124.5 20.4542 127.6 20.4542C132.785 20.4542 136.787 22.0883 139.605 25.3564C142.479 28.6246 143.916 33.4141 143.916 39.7251V63.391H133.18V40.7393C133.18 37.1331 132.447 34.372 130.982 32.4562C129.573 30.5404 127.318 29.5825 124.218 29.5825C121.175 29.5825 118.639 30.6531 116.61 32.7943C114.637 34.9355 113.651 37.9219 113.651 41.7536V63.391H102.83Z" fill="black"/>
<path d="M158.102 81.9857L167.824 60.6018H165.288L148.972 21.4684H160.723L172.474 50.9664L184.732 21.4684H196.23L169.599 81.9857H158.102Z" fill="black"/>
<path d="M219.792 64.4053C215.734 64.4053 212.071 63.4756 208.802 61.6161C205.589 59.7566 203.025 57.1928 201.109 53.9246C199.249 50.6001 198.319 46.7685 198.319 42.4297C198.319 38.091 199.277 34.2875 201.193 31.0193C203.109 27.6948 205.674 25.1028 208.886 23.2434C212.155 21.3839 215.819 20.4542 219.877 20.4542C223.878 20.4542 227.485 21.3839 230.698 23.2434C233.967 25.1028 236.531 27.6948 238.391 31.0193C240.307 34.2875 241.265 38.091 241.265 42.4297C241.265 46.7685 240.307 50.6001 238.391 53.9246C236.531 57.1928 233.967 59.7566 230.698 61.6161C227.429 63.4756 223.794 64.4053 219.792 64.4053ZM219.792 55.0234C222.61 55.0234 225.062 53.981 227.147 51.8961C229.232 49.7549 230.275 46.5995 230.275 42.4297C230.275 38.26 229.232 35.1327 227.147 33.0479C225.062 30.9067 222.638 29.8361 219.877 29.8361C217.002 29.8361 214.522 30.9067 212.437 33.0479C210.408 35.1327 209.394 38.26 209.394 42.4297C209.394 46.5995 210.408 49.7549 212.437 51.8961C214.522 53.981 216.974 55.0234 219.792 55.0234Z" fill="black"/>
<path d="M266.052 50.8819C264.023 50.8819 262.135 50.6565 260.388 50.2057L257.26 53.333C258.218 53.8401 259.514 54.2627 261.149 54.6008C262.783 54.9389 265.432 55.277 269.096 55.6151C274.675 56.1222 278.733 57.4464 281.269 59.5876C283.806 61.7288 285.074 64.687 285.074 68.4623C285.074 70.9416 284.397 73.28 283.045 75.4776C281.692 77.7315 279.607 79.5346 276.789 80.887C273.971 82.2957 270.364 83 265.968 83C259.993 83 255.175 81.873 251.511 79.6191C247.848 77.4216 246.016 74.0971 246.016 69.6456C246.016 65.8703 247.848 62.6022 251.511 59.8411C250.384 59.334 249.398 58.7987 248.552 58.2352C247.763 57.6718 247.059 57.0801 246.439 56.4603V54.5163L253.794 46.7403C250.525 43.8666 248.89 40.1758 248.89 35.668C248.89 32.8506 249.567 30.2868 250.919 27.9766C252.328 25.6663 254.301 23.835 256.837 22.4827C259.373 21.1303 262.445 20.4542 266.052 20.4542C268.419 20.4542 270.617 20.7923 272.646 21.4684H288.54V28.0611L281.354 28.5682C282.481 30.7094 283.045 33.076 283.045 35.668C283.045 38.4854 282.368 41.0492 281.016 43.3595C279.663 45.6697 277.691 47.501 275.098 48.8534C272.562 50.2057 269.546 50.8819 266.052 50.8819ZM266.052 42.5988C268.25 42.5988 270.054 42.0071 271.463 40.8238C272.928 39.6405 273.661 37.9501 273.661 35.7525C273.661 33.555 272.928 31.8646 271.463 30.6813C270.054 29.498 268.25 28.9063 266.052 28.9063C263.741 28.9063 261.881 29.498 260.472 30.6813C259.063 31.8646 258.359 33.555 258.359 35.7525C258.359 37.9501 259.063 39.6405 260.472 40.8238C261.881 42.0071 263.741 42.5988 266.052 42.5988ZM255.907 68.5468C255.907 70.6317 256.865 72.1813 258.782 73.1955C260.754 74.2661 263.15 74.8014 265.968 74.8014C268.673 74.8014 270.871 74.238 272.562 73.111C274.253 72.0404 275.098 70.5754 275.098 68.7159C275.098 67.1945 274.534 65.9267 273.407 64.9124C272.336 63.8982 270.166 63.2783 266.898 63.053C264.587 62.8839 262.445 62.6303 260.472 62.2923C258.838 63.1938 257.654 64.1799 256.922 65.2505C256.245 66.3211 255.907 67.4199 255.907 68.5468Z" fill="black"/>
<path d="M302.264 14.9603C300.291 14.9603 298.657 14.3686 297.361 13.1853C296.121 12.002 295.501 10.5088 295.501 8.7057C295.501 6.90258 296.121 5.43754 297.361 4.31059C298.657 3.12729 300.291 2.53564 302.264 2.53564C304.236 2.53564 305.843 3.12729 307.083 4.31059C308.379 5.43754 309.027 6.90258 309.027 8.7057C309.027 10.5088 308.379 12.002 307.083 13.1853C305.843 14.3686 304.236 14.9603 302.264 14.9603ZM296.853 63.391V21.4684H307.674V63.391H296.853Z" fill="black"/>
<path d="M318.969 63.391V21.4684H328.522L329.368 28.5682C330.664 26.0889 332.524 24.1168 334.947 22.6517C337.427 21.1867 340.33 20.4542 343.655 20.4542C348.84 20.4542 352.87 22.0883 355.744 25.3564C358.619 28.6246 360.056 33.4141 360.056 39.7251V63.391H349.235V40.7393C349.235 37.1331 348.502 34.372 347.037 32.4562C345.571 30.5404 343.289 29.5825 340.189 29.5825C337.145 29.5825 334.637 30.6531 332.665 32.7943C330.748 34.9355 329.79 37.9219 329.79 41.7536V63.391H318.969Z" fill="black"/>
<path d="M374.763 14.4247C372.79 14.4247 371.156 13.833 369.859 12.6497C368.619 11.4664 368 9.97316 368 8.17006C368 6.36694 368.619 4.9019 369.859 3.77495C371.156 2.59165 372.79 2 374.763 2C376.735 2 378.342 2.59165 379.582 3.77495C380.878 4.9019 381.526 6.36694 381.526 8.17006C381.526 9.97316 380.878 11.4664 379.582 12.6497C378.342 13.833 376.735 14.4247 374.763 14.4247ZM369.352 62.8554V20.9328H380.173V62.8554H369.352Z" fill="black"/>
<path d="M310 9.50001C310 13.6422 306.642 17 302.5 17C298.358 17 295 13.6422 295 9.50001C295 5.35787 298.358 2 302.5 2C306.642 2 310 5.35787 310 9.50001Z" fill="#FFBE21"/>
<path d="M382 9.50001C382 13.6422 378.642 17 374.5 17C370.358 17 367 13.6422 367 9.50001C367 5.35787 370.358 2 374.5 2C378.642 2 382 5.35787 382 9.50001Z" fill="#FFBE21"/>
</svg>
