<svg width="188" height="48" viewBox="0 0 188 48" fill="none" xmlns="http://www.w3.org/2000/svg">
<path fill-rule="evenodd" clip-rule="evenodd" d="M23.7652 14.8838C24.0922 15.5815 23.952 17.0233 24.0455 18.0001C24.1856 18.9768 24.4191 19.6745 24.7927 20.5582C25.8669 22.9768 27.0812 24.6512 28.4356 26.4652C29.6033 28 31.4247 30.1396 31.1445 32.9768C30.9577 34.7442 29.2763 37.3954 28.6692 39.814C27.8752 43.0698 27.9686 44.8837 28.8093 48H39.3177C39.0375 40.6977 36.6089 38.9303 36.1418 36.7907C34.9275 30.9303 42.8206 33.907 43.1008 48H43.8948C44.0349 45.5814 44.7354 43.9535 44.4085 41.2093C42.5403 25.3954 30.6307 28.2791 25.7268 17.721C25.1196 16.3722 24.6059 13.3489 23.9987 12.5582L23.7652 14.8838Z" fill="#BE4E92"/>
<path fill-rule="evenodd" clip-rule="evenodd" d="M4.38296 48H5.03682C5.13023 44.6047 5.59727 41.9535 6.57806 39.0698C7.13851 37.5814 9.2869 32.8838 11.4353 34.3721C13.2568 35.8605 10.7814 39.1163 10.1743 40.7442C9.38031 42.9302 8.81986 45.5814 8.77316 48H19.2349C22.0839 40.6977 16.7596 35.8605 16.9464 31.907C17.0865 28.4652 21.3366 25.5814 23.952 18.9303C24.1389 19.1163 24.5592 19.2559 24.7927 20.5582C24.4191 19.6745 24.1856 18.9768 24.0455 18.0001C23.952 17.0233 24.2323 13.3024 23.9987 12.5582C23.5784 13.2094 23.1114 16.4187 22.7844 17.2094C20.7761 21.8605 18.3942 23.2559 14.4711 25.814C13.0699 26.7442 11.7155 27.628 10.5479 28.5117C4.75659 32.9768 2.56149 38.7907 4.38296 48Z" fill="#5DA6DB"/>
<path fill-rule="evenodd" clip-rule="evenodd" d="M21.103 17.2094C20.636 15.721 19.6085 14.6977 20.5426 12.5582C22.1305 9.02334 26.8477 10.0001 27.735 12.9303C28.3889 15.1629 27.3147 16.0931 26.5674 17.4419C31.9851 16.9768 33.1527 5.11638 24.6059 4.37219C20.9162 4.09312 18.3475 6.51172 17.4601 9.16288C16.2925 12.5582 18.5343 16.9303 21.103 17.2094Z" fill="#FFB156"/>
<path fill-rule="evenodd" clip-rule="evenodd" d="M46.3234 31.8605C48.7053 31.4884 49.0322 27.2094 44.0816 26.2326C39.2243 25.2559 41.4194 22.7908 38.7106 20.6047C38.2902 20.2792 37.216 19.7675 37.0292 19.5815C36.4688 18.9303 36.8891 18.4652 35.955 17.9071C34.2737 16.8838 32.639 17.6745 32.2187 19.3489C30.3505 27.535 35.4413 22.6047 35.8616 22.4187C37.8699 23.721 36.5622 26.4187 40.8123 28.9303C42.7271 28.4652 39.2243 29.4884 41.3727 28.6978L41.7931 28.5582C44.8755 27.628 47.6778 28.9303 46.3234 31.8605Z" fill="#BE4E92"/>
<path fill-rule="evenodd" clip-rule="evenodd" d="M7.41874 28.9301C8.81987 27.6278 9.42702 27.7673 10.221 25.9534C10.8749 24.5115 10.8749 23.6743 11.9958 22.3255C13.3502 22.7906 14.004 24.8371 15.5453 23.7208C16.8063 22.7441 16.5728 17.4883 13.6771 17.4418C11.5287 17.4418 11.8089 18.558 11.0617 19.4418C10.4078 20.186 9.28691 20.2325 8.44623 21.5348C6.62477 24.372 8.1193 25.3022 3.82251 26.2325C1.4406 26.7441 -1.40836 29.0697 0.786737 31.4417C1.67412 30.372 1.06696 27.6743 5.45716 28.372L7.41874 28.9301Z" fill="#5DA6DB"/>
<path fill-rule="evenodd" clip-rule="evenodd" d="M17.9272 5.72105C17.8805 4.88385 17.6937 5.06989 17.1332 4.32571C16.4794 3.34897 16.6195 3.34897 15.3585 3.44199C15.6387 4.65129 16.6662 5.81408 17.9272 5.72105Z" fill="#FFC889"/>
<path fill-rule="evenodd" clip-rule="evenodd" d="M29.79 5.44192C30.2571 5.25587 30.9576 5.02331 31.4714 4.79075C32.4055 4.32564 32.3121 4.27913 32.4989 3.20936C30.8175 3.72099 29.9769 3.81401 29.79 5.44192Z" fill="#FFC889"/>
<path fill-rule="evenodd" clip-rule="evenodd" d="M31.4714 8.65111C31.9384 8.51157 32.639 8.2325 33.1527 7.99994C34.0868 7.58134 33.9934 7.48832 34.2269 6.46506C32.4989 6.93018 31.6582 7.0232 31.4714 8.65111Z" fill="#FFC889"/>
<path fill-rule="evenodd" clip-rule="evenodd" d="M16.2925 8.97681C16.0123 8.32564 16.1991 8.60471 15.7321 8.18611C15.6854 8.1396 15.1249 7.76751 15.0782 7.76751C14.1909 7.30239 14.2376 7.30239 13.2101 7.58146C13.6771 8.79076 15.1249 9.02332 16.2925 8.97681Z" fill="#FFC889"/>
<path fill-rule="evenodd" clip-rule="evenodd" d="M20.5893 3.48843C20.5426 1.81402 20.6827 1.02332 19.1882 0.465185C19.2816 2.1396 19.0014 2.97681 20.5893 3.48843Z" fill="#FFC889"/>
<path fill-rule="evenodd" clip-rule="evenodd" d="M27.0346 3.20919C27.6417 2.93013 27.6884 2.88361 28.2489 2.37199C29.1362 1.53478 28.9027 1.81385 28.9494 0.511526C27.7351 1.02315 26.9879 1.58129 27.0346 3.20919Z" fill="#FFC889"/>
<path fill-rule="evenodd" clip-rule="evenodd" d="M23.8586 2.69767C24.3257 2.4186 24.3257 2.37209 24.6526 1.86046C25.1196 0.976742 25.0262 1.30232 24.4658 0C23.485 0.511627 23.0179 1.06977 23.8586 2.69767Z" fill="#FFC889"/>
<path d="M67.596 36.336C66.1587 36.336 64.8893 36.0933 63.788 35.608C62.6867 35.104 61.8187 34.3947 61.184 33.48C60.5493 32.5467 60.2227 31.4173 60.204 30.092H63.984C64.0213 31.0067 64.348 31.7813 64.964 32.416C65.5987 33.032 66.4667 33.34 67.568 33.34C68.52 33.34 69.276 33.116 69.836 32.668C70.396 32.2013 70.676 31.5853 70.676 30.82C70.676 30.0173 70.424 29.392 69.92 28.944C69.4347 28.496 68.7813 28.132 67.96 27.852C67.1387 27.572 66.2613 27.2733 65.328 26.956C63.816 26.4333 62.6587 25.7613 61.856 24.94C61.072 24.1187 60.68 23.0267 60.68 21.664C60.6613 20.5067 60.932 19.5173 61.492 18.696C62.0707 17.856 62.8547 17.212 63.844 16.764C64.8333 16.2973 65.972 16.064 67.26 16.064C68.5667 16.064 69.7147 16.2973 70.704 16.764C71.712 17.2307 72.496 17.884 73.056 18.724C73.6347 19.564 73.9427 20.5627 73.98 21.72H70.144C70.1253 21.0293 69.8547 20.4227 69.332 19.9C68.828 19.3587 68.1187 19.088 67.204 19.088C66.42 19.0693 65.7573 19.2653 65.216 19.676C64.6933 20.068 64.432 20.6467 64.432 21.412C64.432 22.0653 64.6373 22.588 65.048 22.98C65.4587 23.3533 66.0187 23.6707 66.728 23.932C67.4373 24.1933 68.2493 24.4733 69.164 24.772C70.1347 25.108 71.0213 25.5 71.824 25.948C72.6267 26.396 73.2707 26.9933 73.756 27.74C74.2413 28.468 74.484 29.4107 74.484 30.568C74.484 31.5947 74.2227 32.5467 73.7 33.424C73.1773 34.3013 72.4027 35.0107 71.376 35.552C70.3493 36.0747 69.0893 36.336 67.596 36.336Z" fill="black"/>
<path d="M84.275 36.336C82.875 36.336 81.6337 36.0373 80.551 35.44C79.4684 34.8427 78.619 34.0027 78.003 32.92C77.387 31.8373 77.079 30.5867 77.079 29.168C77.079 27.7307 77.3777 26.452 77.975 25.332C78.591 24.212 79.431 23.344 80.495 22.728C81.5777 22.0933 82.847 21.776 84.303 21.776C85.6657 21.776 86.8697 22.0747 87.915 22.672C88.9604 23.2693 89.7724 24.0907 90.351 25.136C90.9484 26.1627 91.247 27.3107 91.247 28.58C91.247 28.7853 91.2377 29 91.219 29.224C91.219 29.448 91.2097 29.6813 91.191 29.924H80.635C80.7097 31.0067 81.083 31.856 81.755 32.472C82.4457 33.088 83.2764 33.396 84.247 33.396C84.975 33.396 85.5817 33.2373 86.067 32.92C86.571 32.584 86.9444 32.1547 87.187 31.632H90.827C90.5657 32.5093 90.127 33.312 89.511 34.04C88.9137 34.7493 88.167 35.3093 87.271 35.72C86.3937 36.1307 85.395 36.336 84.275 36.336ZM84.303 24.688C83.4257 24.688 82.651 24.94 81.979 25.444C81.307 25.9293 80.8777 26.676 80.691 27.684H87.607C87.551 26.7693 87.215 26.0413 86.599 25.5C85.983 24.9587 85.2177 24.688 84.303 24.688Z" fill="black"/>
<path d="M94.2614 36V15.84H97.8454V24.24C98.3121 23.4747 98.9374 22.8773 99.7214 22.448C100.524 22 101.439 21.776 102.465 21.776C104.183 21.776 105.508 22.3173 106.441 23.4C107.393 24.4827 107.869 26.0693 107.869 28.16V36H104.313V28.496C104.313 27.3013 104.071 26.3867 103.585 25.752C103.119 25.1173 102.372 24.8 101.345 24.8C100.337 24.8 99.4974 25.1547 98.8254 25.864C98.1721 26.5733 97.8454 27.5627 97.8454 28.832V36H94.2614Z" fill="black"/>
<path d="M112.568 42.16L115.788 35.076H114.948L109.544 22.112H113.436L117.328 31.884L121.388 22.112H125.196L116.376 42.16H112.568Z" fill="black"/>
<path d="M133 36.336C131.656 36.336 130.442 36.028 129.36 35.412C128.296 34.796 127.446 33.9467 126.812 32.864C126.196 31.7627 125.888 30.4933 125.888 29.056C125.888 27.6187 126.205 26.3587 126.84 25.276C127.474 24.1747 128.324 23.316 129.388 22.7C130.47 22.084 131.684 21.776 133.028 21.776C134.353 21.776 135.548 22.084 136.612 22.7C137.694 23.316 138.544 24.1747 139.16 25.276C139.794 26.3587 140.112 27.6187 140.112 29.056C140.112 30.4933 139.794 31.7627 139.16 32.864C138.544 33.9467 137.694 34.796 136.612 35.412C135.529 36.028 134.325 36.336 133 36.336ZM133 33.228C133.933 33.228 134.745 32.8827 135.436 32.192C136.126 31.4827 136.472 30.4373 136.472 29.056C136.472 27.6747 136.126 26.6387 135.436 25.948C134.745 25.2387 133.942 24.884 133.028 24.884C132.076 24.884 131.254 25.2387 130.564 25.948C129.892 26.6387 129.556 27.6747 129.556 29.056C129.556 30.4373 129.892 31.4827 130.564 32.192C131.254 32.8827 132.066 33.228 133 33.228Z" fill="black"/>
<path d="M148.321 31.856C147.649 31.856 147.024 31.7813 146.445 31.632L145.409 32.668C145.726 32.836 146.156 32.976 146.697 33.088C147.238 33.2 148.116 33.312 149.329 33.424C151.177 33.592 152.521 34.0307 153.361 34.74C154.201 35.4493 154.621 36.4293 154.621 37.68C154.621 38.5013 154.397 39.276 153.949 40.004C153.501 40.7507 152.81 41.348 151.877 41.796C150.944 42.2627 149.749 42.496 148.293 42.496C146.314 42.496 144.718 42.1227 143.505 41.376C142.292 40.648 141.685 39.5467 141.685 38.072C141.685 36.8213 142.292 35.7387 143.505 34.824C143.132 34.656 142.805 34.4787 142.525 34.292C142.264 34.1053 142.03 33.9093 141.825 33.704V33.06L144.261 30.484C143.178 29.532 142.637 28.3093 142.637 26.816C142.637 25.8827 142.861 25.0333 143.309 24.268C143.776 23.5027 144.429 22.896 145.269 22.448C146.109 22 147.126 21.776 148.321 21.776C149.105 21.776 149.833 21.888 150.505 22.112H155.769V24.296L153.389 24.464C153.762 25.1733 153.949 25.9573 153.949 26.816C153.949 27.7493 153.725 28.5987 153.277 29.364C152.829 30.1293 152.176 30.736 151.317 31.184C150.477 31.632 149.478 31.856 148.321 31.856ZM148.321 29.112C149.049 29.112 149.646 28.916 150.113 28.524C150.598 28.132 150.841 27.572 150.841 26.844C150.841 26.116 150.598 25.556 150.113 25.164C149.646 24.772 149.049 24.576 148.321 24.576C147.556 24.576 146.94 24.772 146.473 25.164C146.006 25.556 145.773 26.116 145.773 26.844C145.773 27.572 146.006 28.132 146.473 28.524C146.94 28.916 147.556 29.112 148.321 29.112ZM144.961 37.708C144.961 38.3987 145.278 38.912 145.913 39.248C146.566 39.6027 147.36 39.78 148.293 39.78C149.189 39.78 149.917 39.5933 150.477 39.22C151.037 38.8653 151.317 38.38 151.317 37.764C151.317 37.26 151.13 36.84 150.757 36.504C150.402 36.168 149.684 35.9627 148.601 35.888C147.836 35.832 147.126 35.748 146.473 35.636C145.932 35.9347 145.54 36.2613 145.297 36.616C145.073 36.9707 144.961 37.3347 144.961 37.708Z" fill="black"/>
<path d="M160.314 19.956C159.661 19.956 159.12 19.76 158.691 19.368C158.28 18.976 158.074 18.4813 158.074 17.884C158.074 17.2867 158.28 16.8013 158.691 16.428C159.12 16.036 159.661 15.84 160.314 15.84C160.968 15.84 161.5 16.036 161.911 16.428C162.34 16.8013 162.555 17.2867 162.555 17.884C162.555 18.4813 162.34 18.976 161.911 19.368C161.5 19.76 160.968 19.956 160.314 19.956ZM158.523 36V22.112H162.107V36H158.523Z" fill="black"/>
<path d="M165.847 36V22.112H169.011L169.291 24.464C169.721 23.6427 170.337 22.9893 171.139 22.504C171.961 22.0187 172.922 21.776 174.023 21.776C175.741 21.776 177.075 22.3173 178.027 23.4C178.979 24.4827 179.455 26.0693 179.455 28.16V36H175.871V28.496C175.871 27.3013 175.629 26.3867 175.143 25.752C174.658 25.1173 173.902 24.8 172.875 24.8C171.867 24.8 171.037 25.1547 170.383 25.864C169.749 26.5733 169.431 27.5627 169.431 28.832V36H165.847Z" fill="black"/>
<path d="M184.814 19.956C184.161 19.956 183.62 19.76 183.191 19.368C182.78 18.976 182.574 18.4813 182.574 17.884C182.574 17.2867 182.78 16.8013 183.191 16.428C183.62 16.036 184.161 15.84 184.814 15.84C185.468 15.84 186 16.036 186.411 16.428C186.84 16.8013 187.055 17.2867 187.055 17.884C187.055 18.4813 186.84 18.976 186.411 19.368C186 19.76 185.468 19.956 184.814 19.956ZM183.023 36V22.112H186.607V36H183.023Z" fill="black"/>
<path d="M163 18C163 19.6569 161.657 21 160 21C158.343 21 157 19.6569 157 18C157 16.3431 158.343 15 160 15C161.657 15 163 16.3431 163 18Z" fill="#FFBE21"/>
</svg>
