<svg width="101" height="21" viewBox="0 0 101 21" fill="none" xmlns="http://www.w3.org/2000/svg">
<path d="M5.53933 16.2953C4.46224 16.2953 3.51104 16.11 2.68574 15.7393C1.86043 15.3544 1.20998 14.8126 0.734381 14.1141C0.258782 13.4012 0.0139882 12.5387 0 11.5265H2.83261C2.86059 12.2251 3.10538 12.8167 3.56699 13.3014C4.04259 13.7719 4.69304 14.0071 5.51835 14.0071C6.23175 14.0071 6.79827 13.836 7.21792 13.4939C7.63756 13.1375 7.84739 12.667 7.84739 12.0825C7.84739 11.4694 7.65854 10.9919 7.28086 10.6497C6.91717 10.3075 6.42758 10.0295 5.8121 9.81568C5.19662 9.60183 4.53917 9.37373 3.83976 9.13136C2.70672 8.73218 1.83945 8.21894 1.23796 7.59165C0.650452 6.96436 0.356699 6.13035 0.356699 5.08961C0.342711 4.2057 0.54554 3.4501 0.965186 2.82281C1.39882 2.18126 1.98633 1.68941 2.7277 1.34725C3.46908 0.990835 4.32236 0.812627 5.28754 0.812627C6.26672 0.812627 7.12699 0.990835 7.86837 1.34725C8.62373 1.70366 9.21124 2.20265 9.63088 2.84419C10.0645 3.48574 10.2953 4.24847 10.3233 5.13238H7.44872C7.43473 4.60489 7.2319 4.14155 6.84023 3.74236C6.46255 3.32892 5.931 3.1222 5.24558 3.1222C4.65807 3.10794 4.16149 3.25764 3.75583 3.57128C3.36416 3.87067 3.16833 4.31263 3.16833 4.89715C3.16833 5.39613 3.3222 5.79531 3.62994 6.0947C3.93768 6.37984 4.35733 6.6222 4.88888 6.82179C5.42043 7.02138 6.02892 7.23523 6.71434 7.46334C7.44173 7.71996 8.10617 8.01935 8.70766 8.36151C9.30915 8.70367 9.79175 9.15988 10.1554 9.73014C10.5191 10.2862 10.701 11.0061 10.701 11.89C10.701 12.6741 10.5051 13.4012 10.1135 14.0713C9.72181 14.7413 9.14129 15.2831 8.37194 15.6965C7.60259 16.0957 6.65839 16.2953 5.53933 16.2953Z" fill="black"/>
<path d="M18.0381 16.2953C16.989 16.2953 16.0587 16.0672 15.2474 15.611C14.4361 15.1548 13.7996 14.5132 13.338 13.6864C12.8764 12.8595 12.6456 11.9043 12.6456 10.8208C12.6456 9.72301 12.8694 8.74644 13.317 7.89104C13.7787 7.03564 14.4081 6.37271 15.2055 5.90224C16.0168 5.41751 16.968 5.17515 18.059 5.17515C19.0802 5.17515 19.9824 5.40326 20.7658 5.85947C21.5491 6.31568 22.1576 6.94297 22.5912 7.74134C23.0389 8.52546 23.2627 9.40224 23.2627 10.3717C23.2627 10.5285 23.2557 10.6925 23.2417 10.8635C23.2417 11.0346 23.2347 11.2128 23.2207 11.3982H15.3104C15.3663 12.2251 15.6461 12.8737 16.1497 13.3442C16.6672 13.8147 17.2897 14.0499 18.0171 14.0499C18.5626 14.0499 19.0172 13.9287 19.3809 13.6864C19.7586 13.4297 20.0384 13.1018 20.2202 12.7026H22.9479C22.7521 13.3727 22.4234 13.9857 21.9618 14.5418C21.5141 15.0835 20.9546 15.5112 20.2832 15.8248C19.6257 16.1385 18.8774 16.2953 18.0381 16.2953ZM18.059 7.39919C17.4016 7.39919 16.8211 7.59165 16.3175 7.97658C15.8139 8.34725 15.4922 8.91751 15.3523 9.68737H20.535C20.493 8.9888 20.2412 8.43279 19.7796 8.01935C19.318 7.60591 18.7445 7.39919 18.059 7.39919Z" fill="black"/>
<path d="M25.5215 16.0387V0.641547H28.2073V7.05703C28.557 6.4725 29.0256 6.01629 29.6131 5.68839C30.2146 5.34623 30.9 5.17515 31.6694 5.17515C32.9563 5.17515 33.9494 5.58859 34.6488 6.41548C35.3622 7.24236 35.7189 8.45417 35.7189 10.0509V16.0387H33.0542V10.3075C33.0542 9.39511 32.8723 8.69654 32.5087 8.21181C32.1589 7.72709 31.5994 7.48472 30.8301 7.48472C30.0747 7.48472 29.4452 7.7556 28.9417 8.29735C28.4521 8.8391 28.2073 9.5947 28.2073 10.5642V16.0387H25.5215Z" fill="black"/>
<path d="M39.7349 3.78513C39.2453 3.78513 38.8397 3.63544 38.518 3.33605C38.2102 3.03666 38.0563 2.65886 38.0563 2.20265C38.0563 1.74644 38.2102 1.37576 38.518 1.09063C38.8397 0.791242 39.2453 0.641547 39.7349 0.641547C40.2245 0.641547 40.6232 0.791242 40.9309 1.09063C41.2526 1.37576 41.4135 1.74644 41.4135 2.20265C41.4135 2.65886 41.2526 3.03666 40.9309 3.33605C40.6232 3.63544 40.2245 3.78513 39.7349 3.78513ZM38.3921 16.0387V5.43177H41.0778V16.0387H38.3921Z" fill="black"/>
<path d="M45.182 20.7434L47.5949 15.333H46.9655L42.9159 5.43177H45.8324L48.749 12.8951L51.7914 5.43177H54.645L48.0356 20.7434H45.182Z" fill="black"/>
<path d="M60.493 16.2953C59.4858 16.2953 58.5766 16.0601 57.7653 15.5896C56.968 15.1191 56.3315 14.4705 55.8559 13.6436C55.3943 12.8024 55.1635 11.833 55.1635 10.7352C55.1635 9.63747 55.4013 8.67515 55.8769 7.84827C56.3525 7.00713 56.9889 6.35132 57.7863 5.88086C58.5976 5.41039 59.5068 5.17515 60.514 5.17515C61.5071 5.17515 62.4024 5.41039 63.1997 5.88086C64.011 6.35132 64.6475 7.00713 65.1091 7.84827C65.5847 8.67515 65.8225 9.63747 65.8225 10.7352C65.8225 11.833 65.5847 12.8024 65.1091 13.6436C64.6475 14.4705 64.011 15.1191 63.1997 15.5896C62.3884 16.0601 61.4862 16.2953 60.493 16.2953ZM60.493 13.9216C61.1924 13.9216 61.8009 13.6578 62.3185 13.1303C62.836 12.5886 63.0948 11.7902 63.0948 10.7352C63.0948 9.68024 62.836 8.889 62.3185 8.36151C61.8009 7.81976 61.1994 7.54888 60.514 7.54888C59.8006 7.54888 59.1851 7.81976 58.6675 8.36151C58.164 8.889 57.9122 9.68024 57.9122 10.7352C57.9122 11.7902 58.164 12.5886 58.6675 13.1303C59.1851 13.6578 59.7936 13.9216 60.493 13.9216Z" fill="black"/>
<path d="M71.9744 12.8737C71.4708 12.8737 71.0022 12.8167 70.5686 12.7026L69.7923 13.4939C70.0301 13.6222 70.3518 13.7291 70.7574 13.8147C71.1631 13.9002 71.8205 13.9857 72.7298 14.0713C74.1146 14.1996 75.1218 14.5346 75.7512 15.0764C76.3807 15.6181 76.6954 16.3666 76.6954 17.3218C76.6954 17.9491 76.5276 18.5407 76.1919 19.0967C75.8561 19.667 75.3386 20.1232 74.6392 20.4654C73.9398 20.8218 73.0445 21 71.9534 21C70.4707 21 69.2747 20.7149 68.3655 20.1446C67.4562 19.5886 67.0016 18.7475 67.0016 17.6212C67.0016 16.666 67.4562 15.8391 68.3655 15.1405C68.0857 15.0122 67.8409 14.8768 67.6311 14.7342C67.4352 14.5917 67.2604 14.442 67.1065 14.2851V13.7933L68.932 11.8259C68.1207 11.0988 67.715 10.165 67.715 9.02444C67.715 8.31161 67.8829 7.66293 68.2186 7.07841C68.5683 6.49389 69.0579 6.03055 69.6873 5.68839C70.3168 5.34623 71.0792 5.17515 71.9744 5.17515C72.5619 5.17515 73.1075 5.26069 73.611 5.43177H77.5557V7.0998L75.7722 7.22811C76.052 7.76986 76.1919 8.36864 76.1919 9.02444C76.1919 9.73727 76.024 10.3859 75.6883 10.9705C75.3526 11.555 74.863 12.0183 74.2195 12.3605C73.5901 12.7026 72.8417 12.8737 71.9744 12.8737ZM71.9744 10.778C72.52 10.778 72.9676 10.6283 73.3173 10.3289C73.681 10.0295 73.8628 9.60183 73.8628 9.04583C73.8628 8.48982 73.681 8.06212 73.3173 7.76273C72.9676 7.46334 72.52 7.31364 71.9744 7.31364C71.4009 7.31364 70.9393 7.46334 70.5896 7.76273C70.2399 8.06212 70.065 8.48982 70.065 9.04583C70.065 9.60183 70.2399 10.0295 70.5896 10.3289C70.9393 10.6283 71.4009 10.778 71.9744 10.778ZM69.4565 17.3432C69.4565 17.8707 69.6943 18.2627 70.1699 18.5193C70.6595 18.7902 71.254 18.9257 71.9534 18.9257C72.6249 18.9257 73.1704 18.7831 73.59 18.498C74.0097 18.2271 74.2195 17.8564 74.2195 17.3859C74.2195 17.001 74.0796 16.6802 73.7999 16.4236C73.5341 16.167 72.9956 16.0102 72.1842 15.9532C71.6107 15.9104 71.0792 15.8462 70.5896 15.7607C70.1839 15.9888 69.8902 16.2383 69.7083 16.5092C69.5405 16.78 69.4565 17.058 69.4565 17.3432Z" fill="black"/>
<path d="M80.9619 3.78513C80.4723 3.78513 80.0667 3.63544 79.7449 3.33605C79.4372 3.03666 79.2833 2.65886 79.2833 2.20265C79.2833 1.74644 79.4372 1.37576 79.7449 1.09063C80.0667 0.791242 80.4723 0.641547 80.9619 0.641547C81.4515 0.641547 81.8501 0.791242 82.1579 1.09063C82.4796 1.37576 82.6405 1.74644 82.6405 2.20265C82.6405 2.65886 82.4796 3.03666 82.1579 3.33605C81.8501 3.63544 81.4515 3.78513 80.9619 3.78513ZM79.619 16.0387V5.43177H82.3048V16.0387H79.619Z" fill="black"/>
<path d="M85.108 16.0387V5.43177H87.479L87.6889 7.22811C88.0106 6.60081 88.4722 6.10183 89.0737 5.73116C89.6892 5.36049 90.4096 5.17515 91.2349 5.17515C92.5218 5.17515 93.5219 5.58859 94.2353 6.41548C94.9487 7.24236 95.3054 8.45417 95.3054 10.0509V16.0387H92.6197V10.3075C92.6197 9.39511 92.4379 8.69654 92.0742 8.21181C91.7105 7.72709 91.1439 7.48472 90.3746 7.48472C89.6192 7.48472 88.9967 7.7556 88.5072 8.29735C88.0316 8.8391 87.7938 9.5947 87.7938 10.5642V16.0387H85.108Z" fill="black"/>
<path d="M99.3214 3.78513C98.8318 3.78513 98.4262 3.63544 98.1044 3.33605C97.7967 3.03666 97.6428 2.65886 97.6428 2.20265C97.6428 1.74644 97.7967 1.37576 98.1044 1.09063C98.4262 0.791242 98.8318 0.641547 99.3214 0.641547C99.811 0.641547 100.21 0.791242 100.517 1.09063C100.839 1.37576 101 1.74644 101 2.20265C101 2.65886 100.839 3.03666 100.517 3.33605C100.21 3.63544 99.811 3.78513 99.3214 3.78513ZM97.9785 16.0387V5.43177H100.664V16.0387H97.9785Z" fill="black"/>
<path d="M41.8118 2.29124C41.8118 3.55666 40.8052 4.58248 39.5637 4.58248C38.3221 4.58248 37.3155 3.55666 37.3155 2.29124C37.3155 1.02582 38.3221 0 39.5637 0C40.8052 0 41.8118 1.02582 41.8118 2.29124Z" fill="#FFBE21"/>
</svg>
